# xmcd CD database file
#
# Track frame offsets:
#	150
#	16680
#	46460
#	67217
#	88217
#	111992
#	132905
#	161142
#
# Disc length: 2417 seconds
#
# Revision: 0
# Processed by: cddbd v1.5.2PL0 Copyright (c) Steve Scherf et al.
# Submitted via: CDex 1.70beta3
#
DISCID=6f096f08
DTITLE=MAX - Ww Love SATURDAY NIGHT !!
DYEAR=1995
DGENRE=VISION FACTORY
TTITLE0=WHIGGLE LINE
TTITLE1=GABBERDISCO
TTITLE2=Hi High Friday Night
TTITLE3=DI DI LA LA LA ～仕事が恋の邪魔をする
TTITLE4=SATURDAY FIGHT
TTITLE5=U NEVER KNOW
TTITLE6=SO I SHOT (ACOUSTIC MIX)
TTITLE7=AFTERNOON GRAY
EXTD=YEAR: 1995
EXTT0=
EXTT1=
EXTT2=
EXTT3=
EXTT4=
EXTT5=
EXTT6=
EXTT7=
PLAYORDER=
